HIERARCHY
ROOT Hips
{
	OFFSET 0.000000 83.214638 0.000000
	CHANNELS 6 Xposition Yposition Zposition Xrotation Yrotation Zrotation
	JOINT Pelvis
	{
		OFFSET 0.000000 0.000000 0.000000
		CHANNELS 3 Xrotation Yrotation Zrotation
		JOINT LeftUpLeg
		{
			OFFSET 8.479700 -4.795502 -0.379100
			CHANNELS 3 Xrotation Yrotation Zrotation
			JOINT LeftLeg
			{
				OFFSET 0.024144 -32.555107 0.112900
				CHANNELS 3 Xrotation Yrotation Zrotation
				JOINT LeftFoot
				{
					OFFSET -0.024144 -32.638630 -3.012600
					CHANNELS 3 Xrotation Yrotation Zrotation
					JOINT LeftToeBase
					{
						OFFSET 0.970200 -13.225400 11.864200
						CHANNELS 3 Xrotation Yrotation Zrotation
						End Site
						{
							OFFSET 0.000000 12.319262 0.000000
						}
					}
					JOINT LFootTongue
					{
						OFFSET 1.142400 -1.059800 6.665200
						CHANNELS 3 Xrotation Yrotation Zrotation
						End Site
						{
							OFFSET 0.000000 12.319262 0.000000
						}
					}
				}
				JOINT LeftPantLeg
				{
					OFFSET 0.918482 -16.533964 -2.284700
					CHANNELS 3 Xrotation Yrotation Zrotation
					End Site
					{
						OFFSET 0.350399 24.744368 0.000000
					}
				}
			}
		}
		JOINT RightUpLeg
		{
			OFFSET -8.479700 -4.795502 -0.379100
			CHANNELS 3 Xrotation Yrotation Zrotation
			JOINT RightLeg
			{
				OFFSET -0.023144 -32.555092 0.112900
				CHANNELS 3 Xrotation Yrotation Zrotation
				JOINT RightFoot
				{
					OFFSET 0.023144 -32.638641 -3.012700
					CHANNELS 3 Xrotation Yrotation Zrotation
					JOINT RightToeBase
					{
						OFFSET -0.970200 -13.225400 11.864200
						CHANNELS 3 Xrotation Yrotation Zrotation
						End Site
						{
							OFFSET 0.000000 12.319244 0.000000
						}
					}
					JOINT RFootTongue
					{
						OFFSET -1.142200 -1.059800 6.665200
						CHANNELS 3 Xrotation Yrotation Zrotation
						End Site
						{
							OFFSET 0.000000 12.319243 0.000000
						}
					}
				}
				JOINT RightPantLeg
				{
					OFFSET -0.919482 -16.533978 -2.284800
					CHANNELS 3 Xrotation Yrotation Zrotation
					End Site
					{
						OFFSET -0.350400 24.744419 0.000000
					}
				}
			}
		}
	}
	JOINT Spine
	{
		OFFSET 0.000000 7.722000 1.166200
		CHANNELS 3 Xrotation Yrotation Zrotation
		JOINT Spine1
		{
			OFFSET 0.000000 12.024101 0.248800
			CHANNELS 3 Xrotation Yrotation Zrotation
			JOINT Spine2
			{
				OFFSET 0.000000 11.502998 -0.491200
				CHANNELS 3 Xrotation Yrotation Zrotation
				JOINT Neck
				{
					OFFSET 0.000000 18.430702 -3.123100
					CHANNELS 3 Xrotation Yrotation Zrotation
					JOINT Head
					{
						OFFSET 0.000000 9.051102 1.034000
						CHANNELS 3 Xrotation Yrotation Zrotation
						JOINT HairB
						{
							OFFSET 0.208400 24.786102 24.822300
							CHANNELS 3 Xrotation Yrotation Zrotation
							End Site
							{
								OFFSET 0.000000 32.263779 0.000000
							}
						}
						JOINT HairA
						{
							OFFSET -7.081100 24.428299 23.196600
							CHANNELS 3 Xrotation Yrotation Zrotation
							End Site
							{
								OFFSET 0.000000 32.263779 0.000000
							}
						}
						JOINT Hat
						{
							OFFSET 16.728800 15.048294 -15.439601
							CHANNELS 3 Xrotation Yrotation Zrotation
							End Site
							{
								OFFSET 0.000000 32.263779 0.000000
							}
						}
					}
				}
				JOINT LeftShoulder
				{
					OFFSET 6.197800 13.665199 -4.064700
					CHANNELS 3 Xrotation Yrotation Zrotation
					JOINT LeftArm
					{
						OFFSET 7.778100 -0.187103 -1.709300
						CHANNELS 3 Xrotation Yrotation Zrotation
						JOINT LeftForeArm
						{
							OFFSET 22.049376 0.000000 0.000000
							CHANNELS 3 Xrotation Yrotation Zrotation
							JOINT LeftHand
							{
								OFFSET 23.009392 0.000000 0.000000
								CHANNELS 3 Xrotation Yrotation Zrotation
								JOINT LeftHandThumb1
								{
									OFFSET 3.507191 -2.063065 3.133727
									CHANNELS 3 Xrotation Yrotation Zrotation
									JOINT LeftHandThumb2
									{
										OFFSET 3.101337 -1.790558 1.790558
										CHANNELS 3 Xrotation Yrotation Zrotation
										JOINT LeftHandThumb3
										{
											OFFSET 3.058640 -1.765907 1.765906
											CHANNELS 3 Xrotation Yrotation Zrotation
											End Site
											{
												OFFSET -0.415260 3.926476 -0.049563
											}
										}
									}
								}
								JOINT LeftHandIndex1
								{
									OFFSET 11.334419 -0.901459 3.706815
									CHANNELS 3 Xrotation Yrotation Zrotation
									JOINT LeftHandIndex2
									{
										OFFSET 3.283112 0.000000 0.000000
										CHANNELS 3 Xrotation Yrotation Zrotation
										JOINT LeftHandIndex3
										{
											OFFSET 3.323853 0.000000 0.000000
											CHANNELS 3 Xrotation Yrotation Zrotation
											End Site
											{
												OFFSET -1.135597 3.097809 0.402452
											}
										}
									}
								}
								JOINT LeftHandMiddle1
								{
									OFFSET 11.335861 0.000000 0.000000
									CHANNELS 3 Xrotation Yrotation Zrotation
									JOINT LeftHandMiddle2
									{
										OFFSET 3.410492 0.000000 0.000000
										CHANNELS 3 Xrotation Yrotation Zrotation
										JOINT LeftHandMiddle3
										{
											OFFSET 3.312172 0.000000 0.000000
											CHANNELS 3 Xrotation Yrotation Zrotation
											End Site
											{
												OFFSET -1.150200 3.080154 0.400270
											}
										}
									}
								}
								JOINT LeftHandRing1
								{
									OFFSET 11.514786 -0.013176 -3.003090
									CHANNELS 3 Xrotation Yrotation Zrotation
									JOINT LeftHandRing2
									{
										OFFSET 3.053307 0.000000 0.000000
										CHANNELS 3 Xrotation Yrotation Zrotation
										JOINT LeftHandRing3
										{
											OFFSET 3.295807 0.000000 0.000000
											CHANNELS 3 Xrotation Yrotation Zrotation
											End Site
											{
												OFFSET -1.281006 3.013344 0.375733
											}
										}
									}
								}
								JOINT LeftHandPinky1
								{
									OFFSET 10.518692 -0.960396 -5.730441
									CHANNELS 3 Xrotation Yrotation Zrotation
									JOINT LeftHandPinky2
									{
										OFFSET 2.861649 0.000000 0.000000
										CHANNELS 3 Xrotation Yrotation Zrotation
										JOINT LeftHandPinky3
										{
											OFFSET 2.863380 0.000000 0.000000
											CHANNELS 3 Xrotation Yrotation Zrotation
											End Site
											{
												OFFSET -0.843597 2.711159 0.369971
											}
										}
									}
								}
							}
							JOINT LSleeve
							{
								OFFSET 6.676277 -0.344902 -1.011730
								CHANNELS 3 Xrotation Yrotation Zrotation
								End Site
								{
									OFFSET 0.000000 14.885353 0.000000
								}
							}
						}
					}
				}
				JOINT RightShoulder
				{
					OFFSET -6.197800 13.665199 -4.064700
					CHANNELS 3 Xrotation Yrotation Zrotation
					JOINT RightArm
					{
						OFFSET -7.778100 -0.187103 -1.709300
						CHANNELS 3 Xrotation Yrotation Zrotation
						JOINT RightForeArm
						{
							OFFSET -22.049376 0.000000 0.000000
							CHANNELS 3 Xrotation Yrotation Zrotation
							JOINT RightHand
							{
								OFFSET -23.009392 0.000000 0.000000
								CHANNELS 3 Xrotation Yrotation Zrotation
								JOINT RightHandThumb1
								{
									OFFSET -3.507191 -2.063065 3.133727
									CHANNELS 3 Xrotation Yrotation Zrotation
									JOINT RightHandThumb2
									{
										OFFSET -3.101337 -1.790558 1.790558
										CHANNELS 3 Xrotation Yrotation Zrotation
										JOINT RightHandThumb3
										{
											OFFSET -3.058640 -1.765907 1.765906
											CHANNELS 3 Xrotation Yrotation Zrotation
											End Site
											{
												OFFSET 0.415260 3.926476 -0.049563
											}
										}
									}
								}
								JOINT RightHandIndex1
								{
									OFFSET -11.334419 -0.901459 3.706815
									CHANNELS 3 Xrotation Yrotation Zrotation
									JOINT RightHandIndex2
									{
										OFFSET -3.283112 0.000000 0.000000
										CHANNELS 3 Xrotation Yrotation Zrotation
										JOINT RightHandIndex3
										{
											OFFSET -3.323853 0.000000 0.000000
											CHANNELS 3 Xrotation Yrotation Zrotation
											End Site
											{
												OFFSET 1.135597 3.097809 0.402452
											}
										}
									}
								}
								JOINT RightHandMiddle1
								{
									OFFSET -11.335861 0.000000 0.000000
									CHANNELS 3 Xrotation Yrotation Zrotation
									JOINT RightHandMiddle2
									{
										OFFSET -3.410492 0.000000 0.000000
										CHANNELS 3 Xrotation Yrotation Zrotation
										JOINT RightHandMiddle3
										{
											OFFSET -3.312172 0.000000 0.000000
											CHANNELS 3 Xrotation Yrotation Zrotation
											End Site
											{
												OFFSET 1.150200 3.080154 0.400270
											}
										}
									}
								}
								JOINT RightHandRing1
								{
									OFFSET -11.514786 -0.013176 -3.003090
									CHANNELS 3 Xrotation Yrotation Zrotation
									JOINT RightHandRing2
									{
										OFFSET -3.053307 0.000000 0.000000
										CHANNELS 3 Xrotation Yrotation Zrotation
										JOINT RightHandRing3
										{
											OFFSET -3.295807 0.000000 0.000000
											CHANNELS 3 Xrotation Yrotation Zrotation
											End Site
											{
												OFFSET 1.281006 3.013344 0.375733
											}
										}
									}
								}
								JOINT RightHandPinky1
								{
									OFFSET -10.518692 -0.960396 -5.730441
									CHANNELS 3 Xrotation Yrotation Zrotation
									JOINT RightHandPinky2
									{
										OFFSET -2.861649 0.000000 0.000000
										CHANNELS 3 Xrotation Yrotation Zrotation
										JOINT RightHandPinky3
										{
											OFFSET -2.863380 0.000000 0.000000
											CHANNELS 3 Xrotation Yrotation Zrotation
											End Site
											{
												OFFSET 0.843597 2.711159 0.369971
											}
										}
									}
								}
							}
							JOINT RSleeve
							{
								OFFSET -6.676277 -0.344902 -1.011730
								CHANNELS 3 Xrotation Yrotation Zrotation
								End Site
								{
									OFFSET 0.000000 14.885353 0.000000
								}
							}
						}
					}
				}
				JOINT Backpack
				{
					OFFSET 0.000000 -2.471497 36.677502
					CHANNELS 3 Xrotation Yrotation Zrotation
					End Site
					{
						OFFSET 0.000000 20.427315 0.000000
					}
				}
				JOINT Hood
				{
					OFFSET 0.000000 18.754097 -10.431000
					CHANNELS 3 Xrotation Yrotation Zrotation
					JOINT Hood1
					{
						OFFSET 0.000000 -5.011002 -7.685901
						CHANNELS 3 Xrotation Yrotation Zrotation
						End Site
						{
							OFFSET 0.000000 9.175140 0.000000
						}
					}
				}
				JOINT LHoodieString
				{
					OFFSET 5.250500 16.397697 3.089900
					CHANNELS 3 Xrotation Yrotation Zrotation
					JOINT LHoodieString1
					{
						OFFSET 0.257700 -6.364304 3.694600
						CHANNELS 3 Xrotation Yrotation Zrotation
						JOINT LHoodieString2
						{
							OFFSET 0.000000 -9.643799 2.679100
							CHANNELS 3 Xrotation Yrotation Zrotation
							End Site
							{
								OFFSET 0.000000 10.009018 0.000000
							}
						}
					}
				}
				JOINT RHoodieString
				{
					OFFSET -5.250500 16.397697 3.089900
					CHANNELS 3 Xrotation Yrotation Zrotation
					JOINT RHoodieString1
					{
						OFFSET -0.257700 -6.364304 3.694600
						CHANNELS 3 Xrotation Yrotation Zrotation
						JOINT RHoodieString2
						{
							OFFSET 0.000000 -9.643799 2.679100
							CHANNELS 3 Xrotation Yrotation Zrotation
							End Site
							{
								OFFSET 0.000000 10.009018 0.000000
							}
						}
					}
				}
			}
			JOINT LBackpack_Strap
			{
				OFFSET 15.223200 -7.719803 -6.610900
				CHANNELS 3 Xrotation Yrotation Zrotation
				End Site
				{
					OFFSET 0.000000 16.040596 0.000000
				}
			}
			JOINT RBackpack_Strap
			{
				OFFSET -15.223000 -7.719803 -6.610900
				CHANNELS 3 Xrotation Yrotation Zrotation
				End Site
				{
					OFFSET 0.000000 16.040596 0.000000
				}
			}
		}
	}
	JOINT BoyFacialAnim_Joint
	{
		OFFSET 1.000000 -82.208099 -1.550900
		CHANNELS 3 Xrotation Yrotation Zrotation
		End Site
		{
			OFFSET 0.000000 30.012791 0.000000
		}
	}
}
MOTION
Frames: 4
Frame Time: 0.016667
-5.569258 107.577347 -11.570518 9.969496 -11.052360 -1.252751 0.000001 0.000001 -0.000000 -134.268241 -19.238401 31.090451 124.864013 -11.853981 -3.093615 23.617638 -24.943229 6.729439 0.000002 0.000001 0.000000 0.000002 0.000001 -0.000000 0.000001 -0.000001 0.000001 -104.187856 31.841652 -43.632833 135.126536 7.468348 0.886422 4.822108 17.776600 36.282658 -0.000001 -0.000001 -0.000003 -0.000001 -0.000001 -0.000003 0.000002 -0.000002 0.000001 33.184443 6.049632 2.367142 7.016412 1.371150 0.932970 7.016148 1.356910 0.957111 7.978309 3.451510 1.914780 -5.460704 28.728131 -21.647084 0.000000 -0.000001 0.000000 0.000000 -0.000001 0.000000 0.000000 -0.000001 0.000000 0.333771 -3.623988 3.511464 -39.710962 20.403436 24.454232 0.000001 -1.659876 0.000010 5.337924 -17.498074 -30.910458 -1.512200 3.683031 6.110827 3.939056 7.948709 0.746811 0.000001 0.000001 -0.000001 0.033125 0.675964 -5.610571 0.032960 0.674436 -5.597740 -0.000003 0.000000 -0.000002 0.069853 0.980275 -8.151090 0.078701 1.040176 -8.653179 -0.000000 0.000001 -0.000001 0.141439 1.391199 -11.609549 0.158272 1.470744 -12.283632 -0.000001 0.000000 -0.000000 1.260529 5.698223 -14.444238 0.229455 -2.281932 -15.368571 -0.000001 0.000001 0.000002 -0.000001 -0.000001 0.000002 -3.152586 -6.176012 -32.353544 -43.155321 11.870933 -9.722794 0.000007 13.107168 0.000006 11.026640 -9.558997 61.789935 -1.849261 -3.581787 -6.586133 4.637199 -8.634126 -0.225393 -0.000000 0.000001 -0.000002 0.097314 -1.161575 9.577302 0.097309 -1.161581 9.577314 0.000003 -0.000003 0.000001 0.734444 -4.504879 10.622726 0.142209 -1.401922 11.584713 -0.000004 -0.000002 -0.000000 1.799570 -8.681472 12.425414 0.204347 -1.676602 13.897324 0.000003 -0.000005 -0.000002 3.082001 -12.378810 14.479198 0.252504 -1.860372 15.457597 -0.000003 -0.000004 -0.000004 0.000000 0.000000 -0.000002 -0.000001 0.000000 -0.000000 -0.000001 0.000000 -0.000000 -0.000001 0.000000 -0.000000 -0.000001 0.000000 -0.000000 -0.000001 0.000000 -0.000000 0.000000 0.000000 -0.000000 -0.000001 0.000000 -0.000000 -0.000001 0.000000 -0.000000 0.000000 0.000000 -0.000000 0.000003 -0.000000 -0.000001 0.000003 -0.000000 -0.000001 0.000001 0.000001 -0.000000 
-5.448391 107.057236 -11.324006 10.359459 -10.645266 -0.558829 -0.000001 0.000001 0.000000 -133.127600 -17.320754 32.269399 124.657127 -11.507558 -4.540159 23.794704 -26.833993 9.501269 -0.000001 0.000001 -0.000001 -0.000001 0.000001 -0.000001 -0.000000 -0.000001 0.000001 -101.116620 30.998991 -44.684320 133.610207 7.572314 1.659719 3.470937 17.046376 35.782169 -0.000002 0.000002 -0.000002 -0.000002 0.000002 -0.000002 0.000002 -0.000002 0.000001 32.806444 5.739022 1.701049 6.928094 1.411406 0.809339 6.927398 1.400736 0.834280 8.137134 3.359823 2.019691 -4.939796 28.238411 -21.457499 0.000001 0.000001 -0.000001 0.000001 0.000001 -0.000001 0.000001 0.000001 -0.000001 0.260224 -3.373977 3.577373 -40.196063 20.677966 26.508053 -0.000002 -2.492644 0.000005 7.106755 -15.300568 -31.430601 -1.510998 3.682987 6.108665 3.939053 7.948706 0.746815 0.000001 -0.000000 0.000000 0.033136 0.675965 -5.610571 0.032965 0.674436 -5.597739 -0.000003 0.000000 -0.000004 0.069861 0.980275 -8.151088 0.078692 1.040174 -8.653175 -0.000000 0.000001 -0.000001 0.141442 1.391199 -11.609551 0.158273 1.470745 -12.283629 0.000004 0.000001 -0.000002 1.260537 5.698222 -14.444240 0.229451 -2.281933 -15.368569 0.000003 0.000001 -0.000002 0.000001 0.000002 0.000005 -2.438241 -4.287076 -32.305565 -40.704051 7.760218 -13.687626 -0.000004 15.033130 -0.000008 9.217871 -10.057911 64.473502 -1.849256 -3.581787 -6.586133 4.637194 -8.634125 -0.225392 0.000001 0.000000 -0.000001 0.097319 -1.161578 9.577303 0.097307 -1.161577 9.577315 -0.000000 0.000002 0.000007 0.734448 -4.504881 10.622729 0.142214 -1.401924 11.584720 -0.000002 -0.000002 0.000003 1.799569 -8.681473 12.425414 0.204350 -1.676602 13.897325 0.000002 0.000000 0.000000 3.082000 -12.378813 14.479198 0.252508 -1.860374 15.457604 -0.000001 0.000001 0.000000 0.000003 0.000002 -0.000004 -0.000002 -0.000000 0.000000 -0.000002 -0.000000 0.000000 -0.000002 -0.000000 0.000000 -0.000002 -0.000000 0.000000 -0.000002 -0.000000 -0.000000 0.000001 -0.000001 0.000000 -0.000002 -0.000000 0.000000 -0.000002 -0.000000 -0.000000 0.000001 -0.000001 0.000000 0.000003 0.000000 -0.000000 0.000003 0.000000 -0.000000 -0.000001 0.000001 0.000000 
-5.290401 106.204910 -10.994108 10.321661 -10.772024 -0.311706 0.000001 -0.000000 -0.000000 -131.212456 -15.494525 32.660182 124.140683 -11.115586 -5.419948 23.916485 -26.162017 11.775028 -0.000001 0.000001 -0.000000 -0.000001 0.000001 -0.000000 0.000000 0.000000 -0.000001 -98.193006 29.285440 -44.425033 132.028649 7.807898 2.126632 1.123491 16.057351 35.547470 -0.000000 0.000003 -0.000002 -0.000000 0.000003 -0.000002 -0.000000 0.000003 -0.000003 32.065986 5.753931 1.157331 6.762702 1.484585 0.721721 6.761559 1.477280 0.747491 8.034095 3.323869 2.004735 -4.484719 27.881879 -21.407117 -0.000003 0.000002 0.000000 -0.000003 0.000002 0.000000 -0.000003 0.000002 0.000000 0.150297 -2.880988 3.833597 -39.803351 20.644050 27.958485 -0.000002 -3.001041 -0.000005 7.784221 -14.020437 -32.303421 -1.509848 3.682948 6.106607 3.939056 7.948709 0.746814 -0.000002 0.000001 0.000000 0.033132 0.675964 -5.610569 0.032963 0.674434 -5.597736 -0.000000 0.000000 -0.000004 0.069867 0.980275 -8.151091 0.078704 1.040174 -8.653174 0.000001 -0.000002 -0.000000 0.141442 1.391198 -11.609544 0.158265 1.470743 -12.283627 0.000000 0.000001 -0.000000 1.260530 5.698221 -14.444235 0.229454 -2.281934 -15.368569 -0.000003 -0.000001 0.000001 -0.000001 -0.000001 -0.000005 -1.787092 -2.322997 -32.141975 -38.691512 3.637150 -16.996654 0.000007 17.122617 -0.000006 6.431848 -10.848091 65.605258 -1.849255 -3.581790 -6.586132 4.637202 -8.634127 -0.225392 0.000003 -0.000000 -0.000000 0.097318 -1.161572 9.577301 0.097311 -1.161579 9.577313 -0.000004 0.000002 0.000004 0.734451 -4.504882 10.622726 0.142210 -1.401924 11.584712 -0.000003 -0.000004 0.000001 1.799569 -8.681471 12.425413 0.204351 -1.676606 13.897324 -0.000002 -0.000002 -0.000002 3.081999 -12.378812 14.479200 0.252509 -1.860371 15.457596 -0.000002 0.000002 0.000000 -0.000002 -0.000003 -0.000001 -0.000003 -0.000000 -0.000000 -0.000003 -0.000000 -0.000000 -0.000003 -0.000000 -0.000000 -0.000003 -0.000000 -0.000000 -0.000003 -0.000000 -0.000000 0.000002 0.000000 0.000000 -0.000003 -0.000000 -0.000000 -0.000003 -0.000000 -0.000000 0.000002 0.000000 0.000000 0.000001 -0.000000 0.000001 0.000001 -0.000000 0.000001 0.000001 -0.000000 -0.000000 
-5.128000 105.065247 -10.656609 10.016171 -11.110501 -0.312867 0.000000 -0.000000 -0.000000 -128.736826 -13.766619 32.582772 123.472280 -10.718811 -5.832498 23.336851 -24.532837 13.006473 -0.000002 0.000000 0.000000 -0.000002 0.000000 -0.000000 0.000000 -0.000001 0.000000 -95.252821 27.100621 -43.238396 130.466654 8.032988 2.311466 -1.859861 14.644132 35.429988 0.000002 0.000003 -0.000001 0.000002 0.000003 -0.000001 -0.000002 -0.000005 -0.000000 31.047615 5.985685 0.741524 6.538968 1.568813 0.665330 6.537239 1.564634 0.691663 7.825991 3.324094 1.952252 -4.157732 27.663955 -21.379889 0.000001 -0.000001 -0.000001 0.000001 -0.000001 -0.000001 0.000001 -0.000001 -0.000001 0.039206 -2.385778 4.168920 -38.968340 20.585633 29.044392 0.000001 -3.374195 -0.000012 8.050776 -13.187937 -33.345906 -1.508785 3.682911 6.104659 3.939055 7.948709 0.746814 -0.000003 -0.000000 -0.000001 0.033129 0.675965 -5.610570 0.032962 0.674435 -5.597737 -0.000000 0.000000 -0.000002 0.069859 0.980275 -8.151088 0.078703 1.040174 -8.653175 0.000000 0.000000 -0.000003 0.141444 1.391198 -11.609545 0.158264 1.470743 -12.283629 0.000000 0.000000 -0.000000 1.260533 5.698221 -14.444242 0.229451 -2.281931 -15.368573 -0.000001 0.000000 -0.000002 0.000002 0.000001 0.000005 -1.195188 -0.396599 -31.763344 -37.135144 -0.211829 -19.628948 0.000012 19.145493 -0.000012 4.004375 -11.617231 66.067231 -1.849253 -3.581788 -6.586138 4.637197 -8.634128 -0.225394 0.000000 0.000001 -0.000002 0.097319 -1.161578 9.577300 0.097308 -1.161580 9.577311 0.000003 -0.000002 0.000005 0.734452 -4.504881 10.622727 0.142211 -1.401922 11.584714 -0.000000 -0.000001 -0.000000 1.799569 -8.681474 12.425414 0.204351 -1.676607 13.897325 0.000000 -0.000002 0.000002 3.082008 -12.378814 14.479198 0.252504 -1.860373 15.457596 0.000002 0.000001 0.000002 0.000001 0.000001 -0.000002 -0.000001 0.000000 -0.000000 -0.000001 0.000000 -0.000000 -0.000001 0.000000 -0.000000 -0.000001 0.000000 -0.000000 -0.000001 0.000000 -0.000000 0.000003 0.000000 0.000001 -0.000001 0.000000 -0.000000 -0.000001 0.000000 -0.000000 0.000003 0.000000 0.000001 -0.000001 0.000000 -0.000001 -0.000001 0.000000 -0.000001 0.000000 -0.000000 -0.000000 
